<?xml version="1.0" encoding="utf-8"?>
<svg xmlns="http://www.w3.org/2000/svg" style="margin: auto; background: rgb(255, 255, 255); display: block; shape-rendering: auto;" width="280" height="71" preserveAspectRatio="xMidYMid">
<style type="text/css">
  text {
    text-anchor: middle; font-size: 30px; opacity: 0;
  }
</style>
<g style="transform-origin: 140px 35.5px; transform: scale(0.375);">
<g transform="translate(140,35.5)">
  <g transform="translate(0,0)"><g class="path" style="opacity: 1; transform-origin: -300.8px 4.6661px; animation: 1s linear -0.61875s infinite normal forwards running fade-eb7b76b3-d6df-4be9-b8ce-ad041f91aa05;"><path d="M46.48-44.24L46.48-44.24L46.48-44.24Q40.16-46.96 32.76-46.96L32.76-46.96L32.76-46.96Q25.36-46.96 20.76-42.24L20.76-42.24L20.76-42.24Q16.16-37.52 16.16-29.92L16.16-29.92L14.40-29.92L14.40-29.92Q14.40-38.24 19.52-43.48L19.52-43.48L19.52-43.48Q24.64-48.72 32.64-48.72L32.64-48.72L32.64-48.72Q39.04-48.72 46.48-46.24L46.48-46.24L46.48-46.24Q55.04-43.12 65.04-43.12L65.04-43.12L65.04-41.44L65.04-41.44Q59.04-41.44 55.44-42L55.44-42L55.44-42Q55.36-41.68 54.88-39.36L54.88-39.36L54.88-39.36Q51.92-26.24 50.08-18.48L50.08-18.48L71.52-18.48L79.68-53.20L81.36-53.20L70.16-5.12L70.16-5.12Q69.44-2.16 69.44-1.12L69.44-1.12L69.44-1.12Q69.44 2.24 72.56 2.24L72.56 2.24L72.56 2.24Q74.80 2.24 76.48-0.08L76.48-0.08L77.60 0.88L77.60 0.88Q77.04 1.92 75.60 2.84L75.60 2.84L75.60 2.84Q74.16 3.76 72.12 3.76L72.12 3.76L72.12 3.76Q70.08 3.76 68.92 2.40L68.92 2.40L68.92 2.40Q67.76 1.04 67.76-0.88L67.76-0.88L68.72-6.16L71.20-17.04L49.68-17.04L49.68-17.04Q48.80-13.68 47.92-9.76L47.92-9.76L47.92-9.76Q47.04-5.84 45.80-2.08L45.80-2.08L45.80-2.08Q44.56 1.68 42.40 5.68L42.40 5.68L42.40 5.68Q40.24 9.68 37.56 12.20L37.56 12.20L37.56 12.20Q34.88 14.72 30.84 16.36L30.84 16.36L30.84 16.36Q26.80 18 22.12 18L22.12 18L22.12 18Q17.44 18 13.28 16.24L13.28 16.24L13.28 16.24Q9.12 14.48 6.32 11.36L6.32 11.36L6.32 11.36Q1.52 5.84 1.52-2L1.52-2L1.52-2Q1.52-3.28 1.60-4.56L1.60-4.56L3.36-4.32L3.36-4.32Q3.28-3.20 3.28-2.08L3.28-2.08L3.28-2.08Q3.28 5.36 7.80 10.36L7.80 10.36L7.80 10.36Q12.32 15.36 20 15.36L20 15.36L20 15.36Q27.68 15.36 30.80 11.28L30.80 11.28L30.80 11.28Q33.92 7.20 36.76-4.40L36.76-4.40L36.76-4.40Q39.60-16 46.48-44.24" fill="#0074e4" stroke="none" stroke-width="none" transform="translate(-342.239990234375,22.266099014282226)" style="fill: rgb(0, 116, 228);"></path></g><g class="path" style="opacity: 1; transform-origin: -244.32px 7.0661px; animation: 1s linear -0.5775s infinite normal forwards running fade-eb7b76b3-d6df-4be9-b8ce-ad041f91aa05;"><path d="M101.44-31.12L101.44-31.12L101.44-31.12Q111.60-31.12 111.60-23.04L111.60-23.04L111.60-23.04Q111.60-18 106.84-15.40L106.84-15.40L106.84-15.40Q102.08-12.80 93.28-12.72L93.28-12.72L93.28-12.72Q93.12-9.84 93.12-8.16L93.12-8.16L93.12-8.16Q93.12-4.56 94.76-2.84L94.76-2.84L94.76-2.84Q96.40-1.12 98.88-1.12L98.88-1.12L98.88-1.12Q101.36-1.12 103.40-2.08L103.40-2.08L103.40-2.08Q105.44-3.04 106.64-4.36L106.64-4.36L106.64-4.36Q107.84-5.68 108.72-7.12L108.72-7.12L108.72-7.12Q110.32-9.76 110.32-10.48L110.32-10.48L111.76-9.84L111.76-9.84Q111.52-8.56 110.32-6.44L110.32-6.44L110.32-6.44Q109.12-4.32 107.68-2.96L107.68-2.96L107.68-2.96Q106.24-1.60 103.44-0.44L103.44-0.44L103.44-0.44Q100.64 0.72 97.20 0.72L97.20 0.72L97.20 0.72Q90.72 0.72 87.40-2.36L87.40-2.36L87.40-2.36Q84.08-5.44 84.08-10.80L84.08-10.80L84.08-10.80Q84.08-20.32 88.80-25.72L88.80-25.72L88.80-25.72Q93.52-31.12 101.44-31.12zM109.60-23.04L109.60-23.04Q109.60-25.68 108.04-27.40L108.04-27.40L108.04-27.40Q106.48-29.12 103.40-29.12L103.40-29.12L103.40-29.12Q100.32-29.12 97.40-25.44L97.40-25.44L97.40-25.44Q94.48-21.76 93.52-14.56L93.52-14.56L93.52-14.56Q109.60-14.64 109.60-23.04L109.60-23.04" fill="#0074e4" stroke="none" stroke-width="none" transform="translate(-342.239990234375,22.266099014282226)" style="fill: rgb(0, 116, 228);"></path></g><g class="path" style="opacity: 1; transform-origin: -214.76px -3.2939px; animation: 1s linear -0.53625s infinite normal forwards running fade-eb7b76b3-d6df-4be9-b8ce-ad041f91aa05;"><path d="M130.56-2.88L130.56-2.88L130.56-2.88Q129.52-1.52 127.72-0.40L127.72-0.40L127.72-0.40Q125.92 0.72 123.04 0.72L123.04 0.72L123.04 0.72Q120.16 0.72 118.16-1.12L118.16-1.12L118.16-1.12Q116.16-2.96 116.16-6.32L116.16-6.32L116.16-6.32Q116.16-6.96 116.32-8.40L116.32-8.40L121.52-37.20L121.52-37.20Q122.96-45.12 125.48-48.48L125.48-48.48L125.48-48.48Q128-51.84 132.16-51.84L132.16-51.84L132.16-51.84Q135.04-51.84 136.92-49.68L136.92-49.68L136.92-49.68Q138.80-47.52 138.80-43.12L138.80-43.12L138.80-43.12Q138.80-38.72 135.40-30.56L135.40-30.56L135.40-30.56Q132-22.40 132-18.64L132-18.64L130.56-18.64L130.56-18.64Q130.56-22.88 133.92-30.76L133.92-30.76L133.92-30.76Q137.28-38.64 137.28-43.36L137.28-43.36L137.28-43.36Q137.28-46.24 135.96-48.32L135.96-48.32L135.96-48.32Q134.64-50.40 132.72-50.40L132.72-50.40L132.72-50.40Q132.64-48.32 129.96-31.72L129.96-31.72L129.96-31.72Q127.28-15.12 124.64-0.88L124.64-0.88L124.64-0.88Q126.88-0.88 128.80-3.20L128.80-3.20L128.80-3.20Q130.72-5.52 131.52-7.84L131.52-7.84L132.40-10.24L133.84-9.60L133.84-9.60Q133.60-8.48 132.60-6.36L132.60-6.36L132.60-6.36Q131.60-4.24 130.56-2.88" fill="#0074e4" stroke="none" stroke-width="none" transform="translate(-342.239990234375,22.266099014282226)" style="fill: rgb(0, 116, 228);"></path></g><g class="path" style="opacity: 1; transform-origin: -192.52px -3.2939px; animation: 1s linear -0.495s infinite normal forwards running fade-eb7b76b3-d6df-4be9-b8ce-ad041f91aa05;"><path d="M152.80-2.88L152.80-2.88L152.80-2.88Q151.76-1.52 149.96-0.40L149.96-0.40L149.96-0.40Q148.16 0.72 145.28 0.72L145.28 0.72L145.28 0.72Q142.40 0.72 140.40-1.12L140.40-1.12L140.40-1.12Q138.40-2.96 138.40-6.32L138.40-6.32L138.40-6.32Q138.40-6.96 138.56-8.40L138.56-8.40L143.76-37.20L143.76-37.20Q145.20-45.12 147.72-48.48L147.72-48.48L147.72-48.48Q150.24-51.84 154.40-51.84L154.40-51.84L154.40-51.84Q157.28-51.84 159.16-49.68L159.16-49.68L159.16-49.68Q161.04-47.52 161.04-43.12L161.04-43.12L161.04-43.12Q161.04-38.72 157.64-30.56L157.64-30.56L157.64-30.56Q154.24-22.40 154.24-18.64L154.24-18.64L152.80-18.64L152.80-18.64Q152.80-22.88 156.16-30.76L156.16-30.76L156.16-30.76Q159.52-38.64 159.52-43.36L159.52-43.36L159.52-43.36Q159.52-46.24 158.20-48.32L158.20-48.32L158.20-48.32Q156.88-50.40 154.96-50.40L154.96-50.40L154.96-50.40Q154.88-48.32 152.20-31.72L152.20-31.72L152.20-31.72Q149.52-15.12 146.88-0.88L146.88-0.88L146.88-0.88Q149.12-0.88 151.04-3.20L151.04-3.20L151.04-3.20Q152.96-5.52 153.76-7.84L153.76-7.84L154.64-10.24L156.08-9.60L156.08-9.60Q155.84-8.48 154.84-6.36L154.84-6.36L154.84-6.36Q153.84-4.24 152.80-2.88" fill="#0074e4" stroke="none" stroke-width="none" transform="translate(-342.239990234375,22.266099014282226)" style="fill: rgb(0, 116, 228);"></path></g><g class="path" style="opacity: 1; transform-origin: -166.16px 7.0661px; animation: 1s linear -0.45375s infinite normal forwards running fade-eb7b76b3-d6df-4be9-b8ce-ad041f91aa05;"><path d="M172.96 0.72L172.96 0.72Q166.80 0.72 163.60-2.36L163.60-2.36L163.60-2.36Q160.40-5.44 160.40-10.12L160.40-10.12L160.40-10.12Q160.40-14.80 161.24-18.12L161.24-18.12L161.24-18.12Q162.08-21.44 164-24.52L164-24.52L164-24.52Q165.92-27.60 169.80-29.36L169.80-29.36L169.80-29.36Q173.68-31.12 179.48-31.12L179.48-31.12L179.48-31.12Q185.28-31.12 188.52-28.04L188.52-28.04L188.52-28.04Q191.76-24.96 191.76-19.60L191.76-19.60L191.76-19.60Q191.76-10.48 186.92-4.88L186.92-4.88L186.92-4.88Q182.08 0.72 172.96 0.72L172.96 0.72zM169.44-7.52L169.44-7.52L169.44-7.52Q169.44-1.12 173.16-1.12L173.16-1.12L173.16-1.12Q176.88-1.12 179.80-7.56L179.80-7.56L179.80-7.56Q182.72-14 182.72-22.88L182.72-22.88L182.72-22.88Q182.72-29.60 179.08-29.60L179.08-29.60L179.08-29.60Q175.44-29.60 172.44-23.48L172.44-23.48L172.44-23.48Q169.44-17.36 169.44-7.52" fill="#0074e4" stroke="none" stroke-width="none" transform="translate(-342.239990234375,22.266099014282226)" style="fill: rgb(0, 116, 228);"></path></g><g class="path" style="opacity: 1; transform-origin: -141.84px 21.4261px; animation: 1s linear -0.4125s infinite normal forwards running fade-eb7b76b3-d6df-4be9-b8ce-ad041f91aa05;"><path d="M197.52-1.04L197.52-1.04L197.52-1.04Q195.84-2.72 195.84-5.12L195.84-5.12L195.84-5.12Q195.84-7.52 197.52-9.24L197.52-9.24L197.52-9.24Q199.20-10.96 201.60-10.96L201.60-10.96L201.60-10.96Q204-10.96 205.72-9.24L205.72-9.24L205.72-9.24Q207.44-7.52 207.44-5.12L207.44-5.12L207.44-5.12Q207.44-1.20 203.96 3.12L203.96 3.12L203.96 3.12Q200.48 7.44 194.08 9.28L194.08 9.28L193.36 7.60L193.36 7.60Q196.96 6.40 199.48 4.60L199.48 4.60L199.48 4.60Q202 2.80 202.72 1.60L202.72 1.60L203.44 0.32L203.44 0.32Q202.72 0.64 201.60 0.64L201.60 0.64L201.60 0.64Q199.20 0.64 197.52-1.04" fill="#0074e4" stroke="none" stroke-width="none" transform="translate(-342.239990234375,22.266099014282226)" style="fill: rgb(0, 116, 228);"></path></g><g class="path" style="opacity: 1; transform-origin: -84.64px 5.3061px; animation: 1s linear -0.37125s infinite normal forwards running fade-eb7b76b3-d6df-4be9-b8ce-ad041f91aa05;"><path d="M251.36-47.04L251.36-47.04L251.36-47.04Q243.76-47.04 239.96-42.88L239.96-42.88L239.96-42.88Q236.16-38.72 236.16-29.52L236.16-29.52L234.32-29.52L234.32-29.52Q234.32-48.72 250.88-48.72L250.88-48.72L250.88-48.72Q256.24-48.72 266-44.64L266-44.64L266-44.64Q275.76-40.56 280.88-40.56L280.88-40.56L280.88-38.72L280.88-38.72Q278.80-38.72 276.16-39.28L276.16-39.28L276.16-39.28Q275.60-39.12 274.20-37.48L274.20-37.48L274.20-37.48Q272.80-35.84 271.60-33.76L271.60-33.76L271.60-33.76Q268.24-27.68 265.68-18.24L265.68-18.24L274.32-18.24L274.16-16.80L265.28-16.80L265.28-16.80Q264.72-14.96 264-11.76L264-11.76L264-11.76Q260.72 2.56 257.08 8.68L257.08 8.68L257.08 8.68Q253.44 14.80 246.40 14.80L246.40 14.80L246.40 14.80Q242.16 14.80 240.56 13.84L240.56 13.84L241.36 12.16L241.36 12.16Q242.48 13.28 246.88 13.28L246.88 13.28L246.88 13.28Q247.44 13.28 248.72 13.12L248.72 13.12L254.40-11.52L254.40-11.52Q254.64-12.56 255.12-14.48L255.12-14.48L255.12-14.48Q255.60-16.40 255.68-16.80L255.68-16.80L246.96-16.80L247.12-18.24L256-18.24L256-18.24Q259.12-30 262.20-35.40L262.20-35.40L262.20-35.40Q265.28-40.80 269.44-41.36L269.44-41.36L269.44-41.36Q268.48-41.76 265.16-43.20L265.16-43.20L265.16-43.20Q261.84-44.64 260.40-45.20L260.40-45.20L260.40-45.20Q255.52-47.04 251.36-47.04" fill="#0074e4" stroke="none" stroke-width="none" transform="translate(-342.239990234375,22.266099014282226)" style="fill: rgb(0, 116, 228);"></path></g><g class="path" style="opacity: 1; transform-origin: -52.36px -18.5739px; animation: 1s linear -0.33s infinite normal forwards running fade-eb7b76b3-d6df-4be9-b8ce-ad041f91aa05;"><path d="M291.52-53.20L291.52-53.20L294.96-53.20L294.96-53.20Q294.96-48.88 291.56-40.52L291.56-40.52L291.56-40.52Q288.16-32.16 288.16-28.48L288.16-28.48L284.80-28.48L284.80-28.48Q284.96-32.88 288.24-40.60L288.24-40.60L288.24-40.60Q291.52-48.32 291.52-53.20" fill="#0074e4" stroke="none" stroke-width="none" transform="translate(-342.239990234375,22.266099014282226)" style="fill: rgb(0, 116, 228);"></path></g><g class="path" style="opacity: 1; transform-origin: -20.64px 7.0661px; animation: 1s linear -0.28875s infinite normal forwards running fade-eb7b76b3-d6df-4be9-b8ce-ad041f91aa05;"><path d="M323.92-0.88L323.92-0.88L323.92-0.88Q325.84-0.88 327.92-3.12L327.92-3.12L329.12-2.16L329.12-2.16Q328.56-1.04 326.64-0.16L326.64-0.16L326.64-0.16Q324.72 0.72 322.40 0.72L322.40 0.72L322.40 0.72Q315.12 0.72 315.12-5.84L315.12-5.84L315.12-5.84Q315.12-8.64 316.56-15.84L316.56-15.84L316.56-15.84Q318-23.04 318-25.28L318-25.28L318-25.28Q318-28.72 314.72-28.72L314.72-28.72L314.72-28.72Q309.76-28.72 306.40-16L306.40-16L303.52 0L293.92 0L299.20-29.52L299.20-29.52Q296.80-29.28 295.20-27.28L295.20-27.28L294-28.24L294-28.24Q296.40-31.12 300.04-31.12L300.04-31.12L300.04-31.12Q303.68-31.12 305.68-29.28L305.68-29.28L305.68-29.28Q307.68-27.44 307.68-24.08L307.68-24.08L307.68-23.84L307.68-23.84Q310.80-31.12 317.12-31.12L317.12-31.12L317.12-31.12Q321.60-31.12 324.20-28.68L324.20-28.68L324.20-28.68Q326.80-26.24 327.04-21.84L327.04-21.84L327.04-21.84Q328.56-26.24 330.88-28.68L330.88-28.68L330.88-28.68Q333.20-31.12 337.60-31.12L337.60-31.12L337.60-31.12Q342-31.12 344.64-28.44L344.64-28.44L344.64-28.44Q347.28-25.76 347.28-21.04L347.28-21.04L347.28-21.04Q347.28-18.56 345.76-11.48L345.76-11.48L345.76-11.48Q344.24-4.40 344.08-0.88L344.08-0.88L344.08-0.88Q346-0.88 348.08-3.12L348.08-3.12L349.28-2.16L349.28-2.16Q348.72-1.04 346.80-0.16L346.80-0.16L346.80-0.16Q344.88 0.72 342.56 0.72L342.56 0.72L342.56 0.72Q335.28 0.72 335.28-5.84L335.28-5.84L335.28-5.84Q335.28-8.64 336.72-15.84L336.72-15.84L336.72-15.84Q338.16-23.04 338.16-25.28L338.16-25.28L338.16-25.28Q338.16-28.72 334.88-28.72L334.88-28.72L334.88-28.72Q329.12-28.72 325.60-11.60L325.60-11.60L325.60-11.60Q324.08-4.32 323.92-0.88" fill="#0074e4" stroke="none" stroke-width="none" transform="translate(-342.239990234375,22.266099014282226)" style="fill: rgb(0, 116, 228);"></path></g><g class="path" style="opacity: 1; transform-origin: 49.2px 3.7461px; animation: 1s linear -0.2475s infinite normal forwards running fade-eb7b76b3-d6df-4be9-b8ce-ad041f91aa05;"><path d="M378.88 5.76L378.88 5.76Q376.32 3.36 374.00 2.12L374.00 2.12L374.00 2.12Q371.68 0.88 368.36 0.88L368.36 0.88L368.36 0.88Q365.04 0.88 363.08 2.12L363.08 2.12L363.08 2.12Q361.12 3.36 361.12 5.64L361.12 5.64L361.12 5.64Q361.12 7.92 363.72 9.32L363.72 9.32L363.72 9.32Q366.32 10.72 369.84 10.72L369.84 10.72L369.84 10.72Q373.36 10.72 376.08 10.08L376.08 10.08L376.08 10.08Q377.68 8.64 378.88 5.76L378.88 5.76zM392.40 13.88L392.40 13.88L392.40 13.88Q393.76 14.32 395.28 14.48L395.28 14.48L395.28 14.48Q396.80 14.64 399.32 14.64L399.32 14.64L399.32 14.64Q401.84 14.64 404.48 13.28L404.48 13.28L404.48 13.28Q407.12 11.92 408.68 10.12L408.68 10.12L408.68 10.12Q410.24 8.32 411.44 6.08L411.44 6.08L411.44 6.08Q412.96 3.44 413.68 0.80L413.68 0.80L415.60 1.44L415.60 1.44Q413.52 8.24 409.00 12.24L409.00 12.24L409.00 12.24Q404.48 16.24 398.48 16.24L398.48 16.24L398.48 16.24Q393.76 16.24 391.96 15.56L391.96 15.56L391.96 15.56Q390.16 14.88 389.36 14.68L389.36 14.68L389.36 14.68Q388.56 14.48 387.24 13.48L387.24 13.48L387.24 13.48Q385.92 12.48 385.68 12.32L385.68 12.32L385.68 12.32Q385.04 11.84 382.40 9.20L382.40 9.20L382.40 9.20Q377.28 12.24 371.36 12.24L371.36 12.24L371.36 12.24Q365.44 12.24 362.32 10.36L362.32 10.36L362.32 10.36Q359.20 8.48 359.20 5.64L359.20 5.64L359.20 5.64Q359.20 2.80 361.48 1.08L361.48 1.08L361.48 1.08Q363.76-0.64 368.32-0.64L368.32-0.64L368.32-0.64Q374.56-0.64 379.52 4L379.52 4L379.52 4Q380.48 1.04 381.12-2.56L381.12-2.56L386.48-33.52L386.48-33.52Q388.40-45.52 394.80-49.68L394.80-49.68L394.80-49.68Q400.40-53.28 407.52-53.28L407.52-53.28L407.52-53.28Q414.64-53.28 419.16-49.20L419.16-49.20L419.16-49.20Q423.68-45.12 423.68-36.32L423.68-36.32L421.76-36.32L421.76-36.32Q421.76-43.44 418.36-47.16L418.36-47.16L418.36-47.16Q414.96-50.88 409.76-50.88L409.76-50.88L409.76-50.88Q400.24-50.88 398.48-39.04L398.48-39.04L398.48-39.04Q398.48-37.76 396.44-25.88L396.44-25.88L396.44-25.88Q394.40-14 392.80-6.24L392.80-6.24L392.80-6.24Q391.12 3.12 383.84 8.24L383.84 8.24L383.84 8.24Q388.16 12.56 390.24 13.20L390.24 13.20L390.24 13.20Q391.04 13.44 392.40 13.88" fill="#0074e4" stroke="none" stroke-width="none" transform="translate(-342.239990234375,22.266099014282226)" style="fill: rgb(0, 116, 228);"></path></g><g class="path" style="opacity: 1; transform-origin: 93.6px 7.0661px; animation: 1s linear -0.20625s infinite normal forwards running fade-eb7b76b3-d6df-4be9-b8ce-ad041f91aa05;"><path d="M439.36-31.12L439.36-31.12L439.36-31.12Q449.52-31.12 449.52-23.04L449.52-23.04L449.52-23.04Q449.52-18 444.76-15.40L444.76-15.40L444.76-15.40Q440.00-12.80 431.20-12.72L431.20-12.72L431.20-12.72Q431.04-9.84 431.04-8.16L431.04-8.16L431.04-8.16Q431.04-4.56 432.68-2.84L432.68-2.84L432.68-2.84Q434.32-1.12 436.80-1.12L436.80-1.12L436.80-1.12Q439.28-1.12 441.32-2.08L441.32-2.08L441.32-2.08Q443.36-3.04 444.56-4.36L444.56-4.36L444.56-4.36Q445.76-5.68 446.64-7.12L446.64-7.12L446.64-7.12Q448.24-9.76 448.24-10.48L448.24-10.48L449.68-9.84L449.68-9.84Q449.44-8.56 448.24-6.44L448.24-6.44L448.24-6.44Q447.04-4.32 445.60-2.96L445.60-2.96L445.60-2.96Q444.16-1.60 441.36-0.44L441.36-0.44L441.36-0.44Q438.56 0.72 435.12 0.72L435.12 0.72L435.12 0.72Q428.64 0.72 425.32-2.36L425.32-2.36L425.32-2.36Q422.00-5.44 422.00-10.80L422.00-10.80L422.00-10.80Q422.00-20.32 426.72-25.72L426.72-25.72L426.72-25.72Q431.44-31.12 439.36-31.12zM447.52-23.04L447.52-23.04Q447.52-25.68 445.96-27.40L445.96-27.40L445.96-27.40Q444.40-29.12 441.32-29.12L441.32-29.12L441.32-29.12Q438.24-29.12 435.32-25.44L435.32-25.44L435.32-25.44Q432.40-21.76 431.44-14.56L431.44-14.56L431.44-14.56Q447.52-14.64 447.52-23.04L447.52-23.04" fill="#0074e4" stroke="none" stroke-width="none" transform="translate(-342.239990234375,22.266099014282226)" style="fill: rgb(0, 116, 228);"></path></g><g class="path" style="opacity: 1; transform-origin: 125.36px 7.0661px; animation: 1s linear -0.165s infinite normal forwards running fade-eb7b76b3-d6df-4be9-b8ce-ad041f91aa05;"><path d="M471.12-31.12L471.12-31.12L471.12-31.12Q481.28-31.12 481.28-23.04L481.28-23.04L481.28-23.04Q481.28-18 476.52-15.40L476.52-15.40L476.52-15.40Q471.76-12.80 462.96-12.72L462.96-12.72L462.96-12.72Q462.80-9.84 462.80-8.16L462.80-8.16L462.80-8.16Q462.80-4.56 464.44-2.84L464.44-2.84L464.44-2.84Q466.08-1.12 468.56-1.12L468.56-1.12L468.56-1.12Q471.04-1.12 473.08-2.08L473.08-2.08L473.08-2.08Q475.12-3.04 476.32-4.36L476.32-4.36L476.32-4.36Q477.52-5.68 478.40-7.12L478.40-7.12L478.40-7.12Q480.00-9.76 480.00-10.48L480.00-10.48L481.44-9.84L481.44-9.84Q481.20-8.56 480.00-6.44L480.00-6.44L480.00-6.44Q478.80-4.32 477.36-2.96L477.36-2.96L477.36-2.96Q475.92-1.60 473.12-0.44L473.12-0.44L473.12-0.44Q470.32 0.72 466.88 0.72L466.88 0.72L466.88 0.72Q460.40 0.72 457.08-2.36L457.08-2.36L457.08-2.36Q453.76-5.44 453.76-10.80L453.76-10.80L453.76-10.80Q453.76-20.32 458.48-25.72L458.48-25.72L458.48-25.72Q463.20-31.12 471.12-31.12zM479.28-23.04L479.28-23.04Q479.28-25.68 477.72-27.40L477.72-27.40L477.72-27.40Q476.16-29.12 473.08-29.12L473.08-29.12L473.08-29.12Q470.00-29.12 467.08-25.44L467.08-25.44L467.08-25.44Q464.16-21.76 463.20-14.56L463.20-14.56L463.20-14.56Q479.28-14.64 479.28-23.04L479.28-23.04" fill="#0074e4" stroke="none" stroke-width="none" transform="translate(-342.239990234375,22.266099014282226)" style="fill: rgb(0, 116, 228);"></path></g><g class="path" style="opacity: 1; transform-origin: 189.24px 3.3061px; animation: 1s linear -0.12375s infinite normal forwards running fade-eb7b76b3-d6df-4be9-b8ce-ad041f91aa05;"><path d="M522.64 15.52L522.64 15.52L522.64 15.52Q531.04 15.52 535.72 12.08L535.72 12.08L535.72 12.08Q540.40 8.64 540.40 2.96L540.40 2.96L540.40 2.96Q540.40-1.12 538.36-4.24L538.36-4.24L538.36-4.24Q536.32-7.36 533.28-9.40L533.28-9.40L533.28-9.40Q530.24-11.44 527.08-13.44L527.08-13.44L527.08-13.44Q523.92-15.44 521.20-18.48L521.20-18.48L521.20-18.48Q518.48-21.52 517.60-25.36L517.60-25.36L517.60-25.36Q510.32-27.52 508.00-34.40L508.00-34.40L508.00-34.40Q507.12-37.04 507.12-39.92L507.12-39.92L507.12-39.92Q507.12-42.80 508.00-45.92L508.00-45.92L508.00-45.92Q509.84-52.08 514.00-55.20L514.00-55.20L514.88-53.92L514.88-53.92Q511.12-51.20 509.44-45.44L509.44-45.44L509.44-45.44Q508.64-42.56 508.64-39.92L508.64-39.92L508.64-39.92Q508.64-37.28 509.44-34.88L509.44-34.88L509.44-34.88Q511.36-29.04 517.36-27.04L517.36-27.04L517.36-27.04Q517.20-27.92 517.20-29.76L517.20-29.76L517.20-29.76Q517.20-40.24 524.80-46.72L524.80-46.72L524.80-46.72Q532.40-53.20 543.36-53.20L543.36-53.20L543.36-53.20Q550.56-53.20 554.88-49.28L554.88-49.28L554.88-49.28Q558.56-45.84 558.56-40.84L558.56-40.84L558.56-40.84Q558.56-35.84 555.20-32.20L555.20-32.20L555.20-32.20Q551.84-28.56 546.16-28.56L546.16-28.56L546.16-28.56Q543.04-28.56 541.04-29.76L541.04-29.76L541.04-29.76Q536.96-26.64 531.36-25.28L531.36-25.28L531.36-25.28Q532.96-23.76 538.84-19.68L538.84-19.68L538.84-19.68Q544.72-15.60 547.64-11.88L547.64-11.88L547.64-11.88Q550.56-8.16 550.56-3.20L550.56-3.20L550.56-3.20Q550.56 5.92 543.48 11.60L543.48 11.60L543.48 11.60Q536.40 17.28 525.56 17.28L525.56 17.28L525.56 17.28Q514.72 17.28 509.20 12.48L509.20 12.48L509.20 12.48Q504.40 8.40 504.40 2.52L504.40 2.52L504.40 2.52Q504.40-3.36 508.20-7.56L508.20-7.56L508.20-7.56Q512.00-11.76 517.68-11.76L517.68-11.76L517.68-11.76Q523.36-11.76 526.08-9.24L526.08-9.24L526.08-9.24Q528.80-6.72 528.80-3.12L528.80-3.12L528.80-3.12Q528.80 0.48 526.60 3.28L526.60 3.28L526.60 3.28Q524.40 6.08 520.88 6.08L520.88 6.08L520.88 6.08Q517.36 6.08 515.28 3.84L515.28 3.84L515.28 3.84Q513.36 1.92 513.12-0.96L513.12-0.96L513.12-0.96Q513.04-1.76 513.12-1.92L513.12-1.92L514.64-1.84L514.64-1.84Q514.56 0.96 516.40 2.80L516.40 2.80L516.40 2.80Q517.92 4.48 520.84 4.48L520.84 4.48L520.84 4.48Q523.76 4.48 525.52 2.20L525.52 2.20L525.52 2.20Q527.28-0.08 527.28-3.08L527.28-3.08L527.28-3.08Q527.28-6.08 525.20-7.92L525.20-7.92L525.20-7.92Q522.88-10.24 517.76-10.24L517.76-10.24L517.76-10.24Q512.64-10.24 509.28-6.52L509.28-6.52L509.28-6.52Q505.92-2.80 505.92 2.44L505.92 2.44L505.92 2.44Q505.92 7.68 510.24 11.36L510.24 11.36L510.24 11.36Q512.80 13.60 515.48 14.56L515.48 14.56L515.48 14.56Q518.16 15.52 522.64 15.52zM536.24-39.52L536.24-39.52L536.24-39.52Q536.24-43.04 538.04-45.36L538.04-45.36L538.04-45.36Q539.84-47.68 542.96-47.68L542.96-47.68L542.96-47.68Q548.32-47.68 548.32-41.80L548.32-41.80L548.32-41.80Q548.32-35.92 542.48-30.72L542.48-30.72L542.48-30.72Q544.24-29.92 546.16-29.92L546.16-29.92L546.16-29.92Q551.12-29.92 554.08-33.16L554.08-33.16L554.08-33.16Q557.04-36.40 557.04-40.76L557.04-40.76L557.04-40.76Q557.04-45.12 553.84-48.16L553.84-48.16L553.84-48.16Q549.92-51.68 543.52-51.68L543.52-51.68L543.52-51.68Q537.12-51.68 532.64-48.56L532.64-48.56L532.64-48.56Q525.68-43.60 525.68-35.76L525.68-35.76L525.68-35.76Q525.68-29.28 530.00-26.32L530.00-26.32L530.00-26.32Q535.36-27.52 539.92-30.64L539.92-30.64L539.92-30.64Q536.24-33.92 536.24-39.52zM542.88-46.24L542.88-46.24L542.88-46.24Q540.48-46.24 539.16-44.40L539.16-44.40L539.16-44.40Q537.84-42.56 537.84-39.52L537.84-39.52L537.84-39.52Q537.84-34.32 541.12-31.60L541.12-31.60L541.12-31.60Q543.52-33.28 545.12-36.16L545.12-36.16L545.12-36.16Q546.72-39.04 546.72-41.84L546.72-41.84L546.72-41.84Q546.72-46.24 542.88-46.24" fill="#0074e4" stroke="none" stroke-width="none" transform="translate(-342.239990234375,22.266099014282226)" style="fill: rgb(0, 116, 228);"></path></g><g class="path" style="opacity: 1; transform-origin: 232.88px 7.0661px; animation: 1s linear -0.0825s infinite normal forwards running fade-eb7b76b3-d6df-4be9-b8ce-ad041f91aa05;"><path d="M572 0.72L572 0.72Q565.84 0.72 562.64-2.36L562.64-2.36L562.64-2.36Q559.44-5.44 559.44-10.12L559.44-10.12L559.44-10.12Q559.44-14.80 560.28-18.12L560.28-18.12L560.28-18.12Q561.12-21.44 563.04-24.52L563.04-24.52L563.04-24.52Q564.96-27.60 568.84-29.36L568.84-29.36L568.84-29.36Q572.72-31.12 578.52-31.12L578.52-31.12L578.52-31.12Q584.32-31.12 587.56-28.04L587.56-28.04L587.56-28.04Q590.80-24.96 590.80-19.60L590.80-19.60L590.80-19.60Q590.80-10.48 585.96-4.88L585.96-4.88L585.96-4.88Q581.12 0.72 572 0.72L572 0.72zM568.48-7.52L568.48-7.52L568.48-7.52Q568.48-1.12 572.20-1.12L572.20-1.12L572.20-1.12Q575.92-1.12 578.84-7.56L578.84-7.56L578.84-7.56Q581.76-14 581.76-22.88L581.76-22.88L581.76-22.88Q581.76-29.60 578.12-29.60L578.12-29.60L578.12-29.60Q574.48-29.60 571.48-23.48L571.48-23.48L571.48-23.48Q568.48-17.36 568.48-7.52" fill="#0074e4" stroke="none" stroke-width="none" transform="translate(-342.239990234375,22.266099014282226)" style="fill: rgb(0, 116, 228);"></path></g><g class="path" style="opacity: 1; transform-origin: 277.92px 7.0661px; animation: 1s linear -0.04125s infinite normal forwards running fade-eb7b76b3-d6df-4be9-b8ce-ad041f91aa05;"><path d="M635.44-21.20L635.44-21.20L635.44-21.20Q633.76-22.88 633.76-25.28L633.76-25.28L633.76-25.28Q633.76-27.68 635.44-29.40L635.44-29.40L635.44-29.40Q637.12-31.12 639.24-31.12L639.24-31.12L639.24-31.12Q641.36-31.12 642.84-30.04L642.84-30.04L642.84-30.04Q644.32-28.96 644.96-27.28L644.96-27.28L644.96-27.28Q645.04-27.20 645.04-27.12L645.04-27.12L645.04-27.04L645.04-27.04Q646-24.96 646-21.32L646-21.32L646-21.32Q646-17.68 645.52-15.12L645.52-15.12L645.52-15.12Q645.04-12.56 643.76-9.68L643.76-9.68L643.76-9.68Q642.48-6.80 640.64-4.52L640.64-4.52L640.64-4.52Q638.80-2.24 635.72-0.76L635.72-0.76L635.72-0.76Q632.64 0.72 628.88 0.72L628.88 0.72L628.88 0.72Q622.48 0.72 619.28-3.92L619.28-3.92L619.28-3.92Q615.44 0.72 608.80 0.72L608.80 0.72L608.80 0.72Q603.68 0.72 600.44-2.48L600.44-2.48L600.44-2.48Q597.20-5.68 597.20-9.84L597.20-9.84L597.20-9.84Q597.20-14 598.68-20.12L598.68-20.12L598.68-20.12Q600.16-26.24 600.32-29.52L600.32-29.52L600.32-29.52Q599.04-29.44 597.84-28.60L597.84-28.60L597.84-28.60Q596.64-27.76 596.08-26.96L596.08-26.96L595.52-26.16L594.32-27.12L594.32-27.12Q594.56-27.60 595.04-28.24L595.04-28.24L595.04-28.24Q595.52-28.88 597.48-30L597.48-30L597.48-30Q599.44-31.12 602.40-31.12L602.40-31.12L602.40-31.12Q605.36-31.12 607.16-29.20L607.16-29.20L607.16-29.20Q608.96-27.28 608.96-24.32L608.96-24.32L608.96-24.32Q608.96-21.36 607.36-15.16L607.36-15.16L607.36-15.16Q605.76-8.96 605.76-6.44L605.76-6.44L605.76-6.44Q605.76-3.92 606.92-2.48L606.92-2.48L606.92-2.48Q608.08-1.04 610.24-1.04L610.24-1.04L610.24-1.04Q614.88-1.04 618.16-5.84L618.16-5.84L618.16-5.84Q617.28-8.08 617.28-11.04L617.28-11.04L617.28-11.04Q617.28-14 618.76-20.12L618.76-20.12L618.76-20.12Q620.24-26.24 620.40-29.52L620.40-29.52L620.40-29.52Q619.12-29.44 617.92-28.60L617.92-28.60L617.92-28.60Q616.72-27.76 616.16-26.96L616.16-26.96L615.60-26.16L614.40-27.12L614.40-27.12Q614.64-27.60 615.12-28.24L615.12-28.24L615.12-28.24Q615.60-28.88 617.56-30L617.56-30L617.56-30Q619.52-31.12 622.48-31.12L622.48-31.12L622.48-31.12Q625.44-31.12 627.24-29.20L627.24-29.20L627.24-29.20Q629.04-27.28 629.04-24.32L629.04-24.32L629.04-24.32Q629.04-21.36 627.44-15.16L627.44-15.16L627.44-15.16Q625.84-8.96 625.84-6.44L625.84-6.44L625.84-6.44Q625.84-3.92 627-2.48L627-2.48L627-2.48Q628.16-1.04 630.32-1.04L630.32-1.04L630.32-1.04Q635.68-1.04 639.92-6.84L639.92-6.84L639.92-6.84Q644.16-12.64 644.16-19.92L644.16-19.92L644.16-19.92Q644.16-20.48 644-21.60L644-21.60L644-21.60Q642.32-19.52 639.72-19.52L639.72-19.52L639.72-19.52Q637.12-19.52 635.44-21.20" fill="#0074e4" stroke="none" stroke-width="none" transform="translate(-342.239990234375,22.266099014282226)" style="fill: rgb(0, 116, 228);"></path></g><g class="path" style="opacity: 1; transform-origin: 325.8px 7.0661px; animation: 1s linear 0s infinite normal forwards running fade-eb7b76b3-d6df-4be9-b8ce-ad041f91aa05;"><path d="M680.80-0.88L680.80-0.88L680.80-0.88Q682.72-0.88 684.80-3.12L684.80-3.12L686-2.16L686-2.16Q685.44-1.04 683.52-0.16L683.52-0.16L683.52-0.16Q681.60 0.72 679.28 0.72L679.28 0.72L679.28 0.72Q672 0.72 672-5.84L672-5.84L672-5.84Q672-8.64 673.44-15.84L673.44-15.84L673.44-15.84Q674.88-23.04 674.88-25.28L674.88-25.28L674.88-25.28Q674.88-28.72 671.60-28.72L671.60-28.72L671.60-28.72Q668.96-28.72 666.52-25.28L666.52-25.28L666.52-25.28Q664.08-21.84 662.48-15.84L662.48-15.84L659.76-0.88L659.76-0.88Q662.24-1.12 663.84-3.12L663.84-3.12L665.04-2.16L665.04-2.16Q662.64 0.72 659.04 0.72L659.04 0.72L659.04 0.72Q655.44 0.72 653.40-1.12L653.40-1.12L653.40-1.12Q651.36-2.96 651.36-5.92L651.36-5.92L651.36-5.92Q651.36-7.04 652.64-14.72L652.64-14.72L655.28-29.52L655.28-29.52Q652.88-29.28 651.28-27.28L651.28-27.28L650.08-28.24L650.08-28.24Q652.48-31.12 656.12-31.12L656.12-31.12L656.12-31.12Q659.76-31.12 661.76-29.28L661.76-29.28L661.76-29.28Q663.76-27.44 663.76-24.08L663.76-24.08L663.76-23.60L663.76-23.60Q667.04-31.12 674-31.12L674-31.12L674-31.12Q678.72-31.12 681.36-28.44L681.36-28.44L681.36-28.44Q684-25.76 684-21.04L684-21.04L684-21.04Q684-18.56 682.48-11.48L682.48-11.48L682.48-11.48Q680.96-4.40 680.80-0.88" fill="#0074e4" stroke="none" stroke-width="none" transform="translate(-342.239990234375,22.266099014282226)" style="fill: rgb(0, 116, 228);"></path></g></g>
</g>
</g>
<style id="fade-eb7b76b3-d6df-4be9-b8ce-ad041f91aa05" data-anikit="">@keyframes fade-eb7b76b3-d6df-4be9-b8ce-ad041f91aa05
{
  0% {
    animation-timing-function: cubic-bezier(0.2057,0.573,0.3723,0.9184);
    opacity: 1;
  }
  100% {
    opacity: 0;
  }
}</style></svg>